<svg xmlns="http://www.w3.org/2000/svg" viewBox="0 0 257 257" fill="none">
  <path d="M32.125 139.208C32.125 164.768 42.2788 189.282 60.3526 207.355C78.4264 225.429 102.94 235.583 128.5 235.583C128.5 182.041 85.3454 139.208 32.125 139.208ZM128.5 58.8955C135.6 58.8955 142.409 61.716 147.43 66.7365C152.45 71.757 155.271 78.5663 155.271 85.6663C155.271 92.7664 152.45 99.5757 147.43 104.596C142.409 109.617 135.6 112.437 128.5 112.437C121.4 112.437 114.591 109.617 109.57 104.596C104.55 99.5757 101.729 92.7664 101.729 85.6663C101.729 78.5663 104.55 71.757 109.57 66.7365C114.591 61.716 121.4 58.8955 128.5 58.8955ZM59.9667 109.76C59.9667 116.86 62.7872 123.669 67.8077 128.69C72.8282 133.71 79.6374 136.531 86.7375 136.531C92.4129 136.531 97.66 134.711 101.729 131.819V133.854C101.729 140.954 104.55 147.763 109.57 152.784C114.591 157.804 121.4 160.625 128.5 160.625C135.6 160.625 142.409 157.804 147.43 152.784C152.45 147.763 155.271 140.954 155.271 133.854V131.819C159.34 134.711 164.587 136.531 170.262 136.531C177.363 136.531 184.172 133.71 189.192 128.69C194.213 123.669 197.033 116.86 197.033 109.76C197.033 99.0518 190.715 89.9497 181.72 85.6663C190.715 81.383 197.033 72.1738 197.033 61.5726C197.033 54.4725 194.213 47.6633 189.192 42.6428C184.172 37.6222 177.363 34.8018 170.262 34.8018C164.587 34.8018 159.34 36.5151 155.271 39.5134V37.4788C155.271 30.3788 152.45 23.5695 147.43 18.549C142.409 13.5285 135.6 10.708 128.5 10.708C121.4 10.708 114.591 13.5285 109.57 18.549C104.55 23.5695 101.729 30.3788 101.729 37.4788V39.5134C97.66 36.5151 92.4129 34.8018 86.7375 34.8018C79.6374 34.8018 72.8282 37.6222 67.8077 42.6428C62.7872 47.6633 59.9667 54.4725 59.9667 61.5726C59.9667 72.1738 66.2846 81.383 75.2796 85.6663C66.2846 89.9497 59.9667 99.0518 59.9667 109.76ZM128.5 235.583C154.06 235.583 178.574 225.429 196.647 207.355C214.721 189.282 224.875 164.768 224.875 139.208C171.333 139.208 128.5 182.041 128.5 235.583Z" fill="#6B8F6B"/>
</svg>
